<svg width="54" height="52" viewBox="0 0 54 52" fill="none" xmlns="http://www.w3.org/2000/svg">
<path d="M47.5158 49.6312C47.3601 49.6226 47.2 49.6149 47.043 49.6068C47.3294 49.008 46.957 48.1663 46.2809 48.0077C44.2969 47.5417 42.2532 47.7829 40.2066 47.1964C36.9227 46.2553 33.8651 44.5363 31.0429 42.6756C25.4685 38.9995 19.5152 32.2 27.2241 27.3775C28.1362 26.8073 27.8712 25.1024 26.6281 25.2215C24.6935 25.4071 22.7558 25.5079 20.8155 25.6143C21.842 25.0535 22.6748 23.7423 23.3193 22.9663C24.6208 21.3992 26.1161 20.7727 28.1751 20.652C29.4664 20.5763 29.6575 18.9264 28.4725 18.5004C28.249 18.4201 28.0322 18.0894 27.8218 17.9472C27.3251 17.611 26.8162 17.3488 26.2656 17.1066C25.7564 16.8825 25.2354 16.6867 24.7132 16.4933C27.2997 15.6171 28.925 12.5926 32.0432 12.4595C33.1769 12.4112 33.6782 11.1593 32.9384 10.3424C32.1456 9.46705 31.5538 8.55769 30.8977 7.69143C32.5222 7.61463 34.1434 7.68756 35.7679 7.93976C36.3202 8.02567 36.7904 7.2315 36.184 6.97266C33.7534 5.93541 31.1097 5.81884 28.5227 5.43763C27.0417 5.21941 26.2881 6.89366 27.5162 7.77678C28.5019 8.4856 29.1562 9.42949 29.8205 10.3786C28.7807 10.6875 27.8131 11.1576 26.8551 11.846C25.4516 12.8545 23.7138 13.9056 22.6912 15.2845C22.3549 15.7384 22.6345 16.377 23.1039 16.6204C23.124 16.7353 23.184 16.8425 23.3041 16.9099C23.9396 17.2665 24.5869 17.6021 25.2235 17.9571C25.356 18.0309 25.8102 18.2999 26.2382 18.5772C24.722 18.7946 23.3529 19.3482 22.1361 20.4614C21.4899 21.0526 20.9556 21.7644 20.3726 22.413C19.6283 23.2412 18.7867 23.7155 18.633 24.8629C18.5541 25.4527 19.1662 25.8204 19.6658 25.8748C19.7534 25.8845 19.8358 25.8637 19.9212 25.8601C19.5208 26.264 19.69 27.08 20.4394 27.1214C21.4126 27.1753 22.385 27.2275 23.3568 27.2872C18.7261 31.6939 21.3436 37.8128 26.2791 42.3422C28.0863 44.0004 32.1639 47.0625 36.3751 49.0726C22.8536 48.1735 8.17808 45.4835 3.84334 31.558C1.32962 23.482 5.49519 14.7105 11.1779 8.99359C14.1745 5.97878 18.0119 3.98326 22.173 3.05926C27.1319 1.95792 31.0398 4.16668 35.3661 6.0691C36.462 6.55086 37.5446 5.33488 36.6754 4.40701C30.5921 -2.08669 20.1583 -0.57321 13.2715 3.60842C5.18422 8.51874 0.212597 17.8339 0.00452964 27.0231C-0.211432 36.5703 7.32607 44.9805 15.9499 48.49C26.0234 52.5896 36.8519 52.2391 47.5158 51.6363C48.8338 51.5615 48.8352 49.7033 47.5158 49.6312Z" fill="#00B2A0"/>
<path d="M53.7942 45.9064C52.797 43.6794 51.1017 41.7783 49.1307 40.1292C49.1502 36.3039 49.1987 32.4773 49.1646 28.6523C49.1634 28.5166 49.1471 28.3907 49.1203 28.2727C49.2627 26.8344 49.1527 25.433 48.8973 24.0295C48.8993 24.0284 48.9015 24.0267 48.9035 24.0256C49.8305 23.7803 50.5816 23.0456 51.3163 22.4707C51.9058 22.0094 52.501 21.5415 53.0567 21.0373C53.1694 20.9481 53.2757 20.8509 53.3795 20.7534C54.9873 19.2355 52.5478 16.8546 50.936 18.3592C50.6952 18.5838 50.4381 18.7904 50.1809 18.996C50.0106 19.1319 49.8375 19.2647 49.6653 19.3979C49.5736 19.4683 49.4817 19.5385 49.3895 19.6084C49.6388 19.4186 49.1801 19.7644 49.1835 19.762C48.8195 20.0341 48.4194 20.2943 48.0456 20.5802C47.7839 19.6995 47.4529 18.7719 46.9517 18.0416C47.363 17.8526 47.7586 17.6441 48.1118 17.401C49.5804 16.3914 50.8677 14.6439 50.1649 12.8028C49.7515 11.7202 48.9588 10.9509 47.9641 10.3521C47.7453 10.2203 47.5014 10.0993 47.2612 9.97749C47.1188 9.73302 46.9601 9.49602 46.7619 9.27862C46.6669 9.1742 46.5708 9.09437 46.4752 9.00874C46.5118 8.72201 46.3368 8.41097 45.9688 8.42506C45.8146 8.43086 45.6635 8.4281 45.5115 8.42699C45.1199 8.30186 44.7317 8.3013 44.3522 8.39274C43.1238 8.34219 41.9699 8.35683 40.8909 9.3021C40.168 9.93523 39.8483 10.7504 39.8407 11.6236C38.8283 13.9732 38.5543 16.8703 41.1444 18.2209C41.5659 18.4407 42.0232 18.5753 42.4917 18.6681C42.2219 19.5675 42.0187 20.4735 41.8568 21.387C40.1737 21.7503 38.4277 22.6876 37.0067 23.2552C34.9213 23.8917 35.7888 27.0496 37.9112 26.4695C39.1114 26.1413 40.2645 25.667 41.4218 25.2173C41.3694 26.0988 41.34 26.9902 41.3285 27.8943C41.3259 28.0912 41.3852 28.3106 41.4759 28.518C41.176 29.4185 40.8658 30.4403 40.6637 31.4442C40.3947 32.3602 40.1212 33.2753 39.8263 34.1841C36.9746 32.6577 33.2074 31.0641 30.7596 32.6469C30.7526 32.6375 30.7444 32.6287 30.7371 32.6193C29.8462 31.4577 27.9814 32.4375 28.7086 33.7814C33.275 42.2231 42.333 46.9569 51.6538 48.6347C53.3812 48.9452 54.4776 47.4323 53.7942 45.9064ZM33.4028 35.6479C33.7225 35.7169 34.0563 35.8219 34.3842 35.9106C34.3436 36.1575 34.3825 36.4155 34.5189 36.6401C34.5497 36.6904 34.5891 36.7357 34.6207 36.7851C34.2088 36.4153 33.7983 36.0435 33.4028 35.6479ZM42.7672 35.8424C42.8591 35.7852 42.9468 35.7142 43.0249 35.6219C43.611 34.9322 43.7497 34.141 43.8662 33.3049C44.3872 32.2328 44.8411 31.1386 45.2209 30.0229C45.4334 30.0514 45.6511 30.0674 45.8668 30.0884C45.8566 32.6416 45.8676 35.1949 45.8857 37.7484C44.8436 37.0658 43.7881 36.4324 42.7672 35.8424Z" fill="#00B2A0"/>
</svg>
