<svg width="54" height="52" viewBox="0 0 54 52" fill="none" xmlns="http://www.w3.org/2000/svg">
<path d="M52.3124 31.6777C49.385 32.3608 46.9851 33.6755 44.9616 35.5511C43.4782 33.1177 41.3831 30.7846 39.5187 28.6841C38.3339 27.3489 36.8435 25.3795 34.8772 24.9999C35.1041 24.8396 35.2842 24.6016 35.3745 24.2746C35.6353 23.3366 36.0699 22.4735 36.7303 21.7134C37.0538 21.3413 37.4597 21.023 37.853 20.7165C38.033 20.5763 38.2553 20.5004 38.4237 20.3453C38.6433 20.1429 38.7521 19.8348 38.8994 19.5819C40.9053 17.543 42.6339 14.7357 44.1618 12.6765C46.2323 9.88647 49.1011 5.58962 46.7687 2.26126C44.2366 -1.35219 38.7867 0.0302822 35.61 1.82593C30.7588 4.56817 27.3172 9.07471 24.0493 13.291C24.0009 13.1189 23.9147 12.9478 23.7783 12.7854C20.2362 8.56291 7.38421 -2.81546 1.60151 4.13689C-4.08296 10.9706 6.62699 20.6036 14.0156 23.0824C8.7054 25.9827 4.89757 31.9555 3.14557 37.1989C2.21532 39.983 1.77571 46.7587 5.72724 48.0206C9.29546 49.1604 12.9033 45.2308 14.9691 43.1495C18.2997 39.7936 21.097 36.0307 24.0713 32.4108C24.1226 32.6113 24.2039 32.8302 24.3549 33.0964C25.3121 34.7842 26.8492 35.9816 28.4642 37.1251C30.5734 38.619 32.9548 39.7996 35.3132 40.9186C36.6388 41.5474 38.2155 42.4583 39.7789 42.7369C37.5242 45.0614 36.2699 47.4594 36.7362 50.7704C36.872 51.7349 37.772 52.2867 38.7712 51.8465C42.6526 50.1367 45.8159 46.7365 48.3723 43.6465C50.9284 40.5567 53.7735 36.8849 53.9984 32.861C54.0438 32.0452 53.1159 31.4899 52.3124 31.6777ZM45.6249 42.8439C43.8583 44.8968 41.7828 47.0794 39.3645 48.6224C39.5126 46.5668 40.2921 44.6982 41.3793 42.7318C41.3892 42.7139 41.3892 42.6958 41.3969 42.678C41.9769 42.3702 42.1362 41.6368 41.6409 41.101C40.7528 40.1392 39.3583 39.7277 38.1448 39.2032C36.2324 38.3757 34.3692 37.4583 32.5518 36.4663C30.7244 35.4687 29.0047 34.3159 27.4991 32.9326C27.0633 32.5324 25.2676 30.8746 25.1887 30.3022C25.1535 30.0474 24.7916 29.9526 24.6617 30.1766C24.0839 29.6456 22.9428 29.4951 22.2853 30.2817C18.1094 35.2773 14.1289 42.1251 8.01123 45.3049C4.43684 47.1627 5.88619 38.4193 6.34486 37.1251C8.1124 32.1363 11.8932 27.557 15.7102 23.7539C15.7841 23.6801 15.8366 23.602 15.8712 23.5226C16.785 23.4718 17.3736 22.2406 16.3818 21.8285C11.3686 19.7464 -0.0220405 11.9369 3.64003 6.02144C7.1798 0.302939 19.3804 12.1326 21.8551 14.5581C22.424 15.1156 23.0938 15.0432 23.5531 14.6857C23.8185 15.0126 24.3863 15.1699 24.7526 14.8154C27.856 11.8129 30.9221 8.81827 34.2962 6.06684C36.1159 4.58303 38.1395 3.28568 40.5129 2.71821C42.8764 2.15317 45.0275 3.61563 44.5953 5.80931C43.9507 9.08093 41.0317 12.1577 38.9172 14.7294C37.9615 15.8919 35.9183 17.6235 35.5602 19.3062C35.3558 19.4322 35.1534 19.5662 34.9499 19.7162C33.6745 20.6544 32.9128 22.1217 32.4735 23.5369C32.1022 24.7326 33.412 25.4549 34.4094 25.208C34.4249 25.3777 34.6924 25.4428 34.8094 25.2877C33.9346 26.4432 36.8878 29.678 37.6283 30.7141C39.356 33.131 41.127 35.6289 43.0216 37.9383C42.9975 38.8449 44.4639 39.6474 45.239 38.8081C46.9449 36.9595 48.7104 35.5565 50.99 34.6693C50.0788 37.6767 47.5904 40.5605 45.6249 42.8439Z" fill="#00B2A0"/>
</svg>
