<svg width="54" height="52" viewBox="0 0 54 52" fill="none" xmlns="http://www.w3.org/2000/svg">
<path d="M53.3732 37.2047C51.2741 36.7971 49.6914 38.2573 47.7095 36.0815C47.1916 35.5134 46.4436 35.8337 46.2063 36.5256C44.5052 41.4917 40.9668 39.0925 39.3454 35.614C39.0313 34.9407 38.1419 34.9991 37.8149 35.614C36.6943 38.6808 34.5364 39.0585 31.3407 36.7471C30.8331 36.2505 30.0005 36.4175 29.8096 37.1992C28.4184 42.9002 23.5566 41.334 22.0588 36.6493C21.9834 36.4134 21.8212 36.2989 21.6527 36.2784C21.3119 35.8013 20.5401 35.6583 20.2741 36.3274C18.3581 41.1451 14.8019 40.4077 12.5884 36.3338C12.1888 35.5986 11.364 35.8535 11.102 36.5512C9.24049 41.5074 3.8164 41.3936 3.91299 35.4358C3.92359 34.7759 3.04055 34.6464 2.89123 35.2812C1.14405 42.7063 9.26571 43.9939 12.0791 38.5436C14.985 42.2401 19.3426 42.9987 21.4208 38.0239C23.1938 43.4799 28.9856 44.5531 31.1383 39.1242C33.872 41.1673 36.4762 40.8463 38.5306 37.9437C41.0361 41.9454 45.5006 43.4197 47.4825 38.4817C49.3014 39.8585 50.508 38.8953 53.1396 39.1313C54.1219 39.2198 54.3463 37.3938 53.3732 37.2047Z" fill="#00B2A0"/>
<path d="M50.084 45.2053C49.2605 46.7186 48.9759 48.0749 47.2121 48.8146C45.0411 49.7258 42.88 47.5516 41.8101 45.7689C41.441 45.1537 40.5456 45.0353 40.2008 45.7689C38.6895 48.9845 35.3425 48.1993 33.9143 45.0959C33.5632 44.3325 32.3758 44.4688 32.2299 45.3422C31.4274 50.1528 27.8241 50.662 25.4109 47.1752C25.6743 46.2364 24.3003 45.5974 23.9257 46.5163C21.8999 51.487 17.945 50.9316 15.6495 46.4958C15.2511 45.726 14.3586 45.9959 14.1013 46.7222C12.2357 51.9881 9.33006 49.4831 7.69954 45.8584C7.38198 45.1521 6.47629 45.3967 6.28483 46.0652C5.39376 49.1785 3.92575 49.7598 1.45259 50.5652C0.986854 50.7171 1.05879 51.6213 1.57096 51.545C4.40467 51.1224 5.95237 50.5584 7.11056 48.1977C9.48999 52.3543 12.8118 53.2033 15.0408 48.8296C17.9309 52.8769 22.5737 53.3382 24.8741 48.5231C27.4292 52.4113 31.7143 52.2199 33.4302 47.9829C35.644 50.9041 38.8661 51.3145 41.0953 48.0454C44.4128 51.7768 51.1977 52.612 51.4396 45.617C51.4697 44.7827 50.4482 44.5355 50.084 45.2053Z" fill="#00B2A0"/>
<path d="M15.2398 7.80523C14.6843 7.98606 14.4654 8.45257 14.4823 8.92357C10.5465 9.57412 7.99859 13.9183 7.69449 18.2877C7.27862 24.2661 11.8179 27.7779 16.7396 27.3319C21.7719 26.8763 25.0456 21.8425 24.8977 16.4326C24.7498 11.0291 20.1741 6.19601 15.2398 7.80523ZM16.0592 24.5989C12.4471 24.9304 10.1103 22.2016 10.1794 18.2877C10.2519 14.1857 13.0615 11.4806 16.3186 10.3991C16.3782 10.3792 16.4212 10.3452 16.4696 10.3151C19.6447 10.8691 22.0459 12.2206 22.3832 16.432C22.7335 20.8005 19.8662 24.2488 16.0592 24.5989Z" fill="#00B2A0"/>
<path d="M10.6598 7.62452C10.0673 6.90343 9.41101 6.26988 8.73891 5.64466C8.07254 5.02457 7.36576 3.82479 6.42625 3.9229C5.9287 3.97485 5.59165 4.32785 5.55697 4.89536C5.49105 5.97234 6.4403 6.50137 7.13074 7.0506C7.92006 7.67806 8.74005 8.23948 9.47263 8.95287C10.2855 9.74481 11.3978 8.52259 10.6598 7.62452Z" fill="#00B2A0"/>
<path d="M5.21349 10.8677C5.52934 10.9103 5.25018 10.859 5.16677 10.8298C5.03866 10.7846 4.91312 10.7304 4.78788 10.6766C4.646 10.616 4.50557 10.5506 4.36541 10.4852C4.35596 10.4807 4.3508 10.4784 4.33675 10.4714C4.20319 10.1844 3.97362 9.95325 3.67812 9.84969C3.15048 9.66405 2.34797 9.22062 1.77761 9.42101C1.45518 9.53452 1.11727 9.83302 1.0545 10.23C1.0545 10.23 1.05421 10.2316 1.05421 10.2322C0.994597 10.6083 1.02039 11.0976 1.32047 11.3592C1.48757 11.5041 1.68303 11.6067 1.88681 11.6952C1.72173 11.6946 1.855 11.7032 2.00432 11.742C2.11008 11.7827 2.21441 11.8244 2.32332 11.8568C2.58585 11.9556 2.8481 12.0559 3.1092 12.1582C3.2591 12.2175 3.41358 12.2226 3.56291 12.1925C4.09973 12.3522 4.68756 12.533 5.21378 12.4971C6.17048 12.4317 6.1295 10.9918 5.21349 10.8677Z" fill="#00B2A0"/>
<path d="M3.5738 20.0291C3.17197 20.4059 2.70307 20.7011 2.24622 20.9843C2.01005 21.1308 1.76586 21.2824 1.51278 21.3892C1.36117 21.453 1.11984 21.3995 1.45346 21.4678C1.2878 21.4341 1.13073 21.4306 0.965934 21.4107C-0.423264 21.243 -0.296869 24.0491 1.23449 23.631C1.79853 23.4771 2.37491 22.875 2.8544 22.4893C3.41071 22.042 3.96616 21.553 4.42474 20.9811C4.94895 20.3276 4.1645 19.4748 3.5738 20.0291Z" fill="#00B2A0"/>
<path d="M7.11394 25.5903C6.64333 26.3982 6.21427 27.2357 5.76659 28.0594C5.28136 28.9517 4.45936 29.617 4.3516 30.6847C4.28281 31.3663 4.95004 31.7039 5.44272 31.6145C6.45016 31.4317 6.94169 29.9973 7.30998 29.0681C7.69003 28.1094 7.92361 27.1039 8.22799 26.1151C8.46187 25.3536 7.47593 24.9683 7.11394 25.5903Z" fill="#00B2A0"/>
<path d="M16.6348 28.4945C16.5357 27.9241 15.7472 27.9514 15.6317 28.4945C15.3285 29.9223 14.9734 31.3378 14.6756 32.7669C14.6036 33.1119 14.6655 33.511 14.91 33.7592C14.8699 33.6992 14.8745 33.7111 14.9235 33.7942C15.215 34.327 15.8275 34.2661 16.1295 33.7942C15.8535 34.2251 16.325 33.5854 16.3419 33.5527C16.4531 33.3401 16.4626 33.117 16.4743 32.8784C16.499 32.3847 16.5509 31.8922 16.593 31.4C16.6758 30.4404 16.8011 29.4497 16.6348 28.4945Z" fill="#00B2A0"/>
<path d="M27.1058 29.3376C26.385 28.1808 25.2403 27.4383 24.5851 26.2436C24.1366 25.4254 23.1093 26.1381 23.4559 26.982C23.7562 27.7134 24.2151 28.3206 24.6889 28.9192C24.915 29.2049 25.1466 29.4838 25.3455 29.7942C25.6169 30.2178 25.7284 30.6936 26.2575 30.776C26.5618 30.8234 26.9092 30.7561 27.0628 30.4088C27.0772 30.3768 27.0915 30.3447 27.1055 30.3123C27.2368 30.0167 27.2873 29.6291 27.1058 29.3376Z" fill="#00B2A0"/>
<path d="M31.2995 20.7069C30.0863 20.7784 28.8728 20.847 27.6596 20.9147C26.5679 20.9756 26.5679 22.7486 27.6596 22.8099C28.8731 22.8778 30.0863 22.9465 31.2995 23.0173C32.6317 23.0959 32.6317 20.629 31.2995 20.7069Z" fill="#00B2A0"/>
<path d="M31.3 7.3829C30.1994 7.35725 29.3098 8.83597 28.6503 9.69492C27.9415 10.6177 27.3187 11.6177 26.5962 12.5283C26.0442 13.224 26.8951 14.1875 27.5105 13.5511C28.239 12.797 28.9005 11.9682 29.5998 11.181C29.9948 10.7366 30.4035 10.289 30.8518 9.91167C31.4029 9.44836 31.836 9.29799 32.081 8.52945C32.263 7.95906 31.7947 7.39444 31.3 7.3829Z" fill="#00B2A0"/>
<path d="M26.0118 1.34821C25.3603 1.81568 24.9258 2.57492 24.4781 3.26907C23.9562 4.07833 23.4601 4.89143 22.8565 5.62951C22.1729 6.46538 23.2362 7.66804 23.9702 6.87546C24.54 6.25986 25.0444 5.58879 25.5388 4.89752C26.0697 4.1556 26.7541 3.47619 27.1909 2.66693C27.6294 1.85511 26.7466 0.821098 26.0118 1.34821Z" fill="#00B2A0"/>
<path d="M17.8727 0.235659C17.5551 -0.0785531 17.1396 -0.0785531 16.822 0.235659C16.1986 0.852542 16.4861 1.92952 16.538 2.75064C16.5976 3.69264 16.6615 4.63367 16.738 5.57438C16.8094 6.45161 17.8853 6.45161 17.9567 5.57438C18.0332 4.63335 18.0971 3.69296 18.1567 2.75064C18.2086 1.92984 18.4961 0.852221 17.8727 0.235659Z" fill="#00B2A0"/>
</svg>
